<svg width="50" height="49" viewBox="0 0 50 49" fill="none" xmlns="http://www.w3.org/2000/svg">
<g clip-path="url(#clip0_104_417)">
<path d="M45.232 10.8416C45.2171 10.0272 44.9338 8.29879 44.6198 7.56732C44.3057 6.83585 43.8796 6.2062 43.3412 5.67833C42.7879 5.15047 42.1562 4.7395 41.4459 4.4454C40.7355 4.15131 39.9841 4.00426 39.1916 4.00426C34.1926 4.00426 30.4433 4.00426 27.9438 4.00426C25.4431 4.00426 21.6921 4.00426 16.6908 4.00426V6.10352e-05H39.3037C40.6346 6.10352e-05 41.8945 0.248907 43.0833 0.746607C44.2721 1.24431 45.3151 1.9456 46.2123 2.85051C47.1096 3.74034 47.8086 4.78474 48.3096 5.98374C48.8106 7.18274 49.2306 9.66144 49.2306 11.0037V12.9787H45.232C45.232 12.5342 45.2358 10.9225 45.232 10.8416Z" fill="#3949AB"/>
<path d="M38.3109 45.0201C39.1292 45.0052 40.8657 44.7233 41.6006 44.4107C42.3355 44.0982 42.9681 43.674 43.4985 43.1382C44.0288 42.5875 44.4417 41.9587 44.7372 41.2517C45.0327 40.5447 45.1804 39.7968 45.1804 39.008V16.6127H49.2035V39.1196C49.2035 40.4443 48.9535 41.6982 48.4534 42.8814C47.9534 44.0647 47.2488 45.1028 46.3396 45.9958C45.4456 46.8888 44.3963 47.5846 43.1916 48.0832C41.987 48.5818 39.4966 49 38.148 49H36.1637V45.0201C36.6103 45.0201 38.2296 45.0238 38.3109 45.0201Z" fill="#3949AB"/>
<path d="M3.99859 38.1313C4.01355 38.9457 4.29684 40.6741 4.61087 41.4056C4.92489 42.137 5.35107 42.7667 5.88941 43.2946C6.4427 43.8224 7.07448 44.2334 7.78479 44.5275C8.49509 44.8216 9.2465 44.9686 10.0391 44.9686H32.5398V48.9728H9.9269C8.59602 48.9728 7.33618 48.724 6.14736 48.2263C4.95853 47.7286 3.91552 47.0273 3.0183 46.1224C2.12107 45.2326 1.42199 44.1882 0.921042 42.9892C0.420091 41.7902 0 39.3115 0 37.9692V35.9942H3.99859C3.99859 36.4387 3.99486 38.0504 3.99859 38.1313Z" fill="#3949AB"/>
<path d="M13.0398 4.02544H10.8926C10.0743 4.04033 8.33781 4.32229 7.6029 4.63484C6.86799 4.9474 6.23536 5.37158 5.70502 5.90739C5.17467 6.45809 4.76176 7.08691 4.46628 7.79389C4.1708 8.50086 4.02306 9.24875 4.02306 10.0376C4.02306 13.0228 4.02306 15.2616 4.02306 16.7542C4.02306 20.2384 4.02306 25.4646 4.02306 32.4329C3.59794 32.4329 0.149844 32.4329 0 32.4329L0 9.92596C0 8.60131 0.250018 7.34738 0.750062 6.16413C1.25011 4.98088 1.9547 3.94276 2.86387 3.04974C3.75789 2.15672 4.80721 1.46092 6.01186 0.962318C7.21651 0.463715 9.70688 0.0455933 11.0555 0.0455933C11.1973 0.0455933 13.0398 0.0455933 13.0398 0.0455933C13.0398 1.14489 13.0398 3.17873 13.0398 4.02544Z" fill="#3949AB"/>
<path d="M16.7157 20.2054C16.7157 19.3181 16.886 18.4857 17.2265 17.7081C17.5671 16.9305 18.0278 16.2526 18.6087 15.6744C19.1997 15.0863 19.8858 14.6227 20.667 14.2838C21.4483 13.9448 22.2846 13.7753 23.176 13.7753H33.0618V18.067H23.176C22.8755 18.067 22.5951 18.1218 22.3347 18.2315C22.0743 18.3412 21.8439 18.4957 21.6436 18.6951C21.4533 18.8845 21.303 19.1088 21.1929 19.368C21.0827 19.6272 21.0276 19.9063 21.0276 20.2054C21.0276 20.5044 21.0827 20.7886 21.1929 21.0577C21.303 21.3169 21.4533 21.5462 21.6436 21.7456C21.8439 21.935 22.0743 22.0845 22.3347 22.1942C22.5951 22.3039 22.8755 22.3587 23.176 22.3587H27.4879C28.3793 22.3587 29.2157 22.5282 29.9969 22.8671C30.7882 23.1961 31.4743 23.6547 32.0552 24.2428C32.6462 24.821 33.1069 25.5039 33.4374 26.2915C33.778 27.0691 33.9482 27.9015 33.9482 28.7887C33.9482 29.676 33.778 30.5084 33.4374 31.286C33.1069 32.0636 32.6462 32.7464 32.0552 33.3346C31.4743 33.9128 30.7882 34.3714 29.9969 34.7104C29.2157 35.0493 28.3793 35.2188 27.4879 35.2188H17.9176V30.9271H27.4879C27.7884 30.9271 28.0688 30.8723 28.3293 30.7626C28.5897 30.6529 28.815 30.5034 29.0053 30.314C29.2057 30.1146 29.3609 29.8853 29.4711 29.6261C29.5813 29.3669 29.6363 29.0878 29.6363 28.7887C29.6363 28.4897 29.5813 28.2105 29.4711 27.9513C29.3609 27.6921 29.2057 27.4678 29.0053 27.2784C28.815 27.079 28.5897 26.9245 28.3293 26.8149C28.0688 26.7052 27.7884 26.6504 27.4879 26.6504H23.176C22.2846 26.6504 21.4483 26.4809 20.667 26.1419C19.8858 25.803 19.1997 25.3444 18.6087 24.7662C18.0278 24.178 17.5671 23.4952 17.2265 22.7176C16.886 21.93 16.7157 21.0926 16.7157 20.2054Z" fill="#3949AB"/>
</g>
<defs>
<clipPath id="clip0_104_417">
<rect width="49.2307" height="48.9999" fill="white"/>
</clipPath>
</defs>
</svg>
